<?xml version="1.0" standalone="no"?><!DOCTYPE svg PUBLIC "-//W3C//DTD SVG 1.1//EN" "http://www.w3.org/Graphics/SVG/1.1/DTD/svg11.dtd"><svg t="1740148411437" class="icon" viewBox="0 0 1024 1024" version="1.1" xmlns="http://www.w3.org/2000/svg" p-id="2829" xmlns:xlink="http://www.w3.org/1999/xlink" width="200" height="200"><path d="M713.1 850.1H312.2c-16.5 0-30-13.5-30-30V281.9c0-16.5 13.5-30 30-30h400.9c16.5 0 30 13.5 30 30v538.2c0 16.5-13.5 30-30 30z" fill="#5097FF" p-id="2830"></path><path d="M807.4 742.5c-8.3 0-15-6.7-15-15v-7.9c0-8.3 6.7-15 15-15s15 6.7 15 15v7.9c0 8.3-6.7 15-15 15z" fill="#06275B" p-id="2831"></path><path d="M807.4 799.7c-8.3 0-15 6.7-15 15v60.9c0 8.3-6.7 15-15 15H246.6c-8.3 0-15-6.7-15-15V204.8c0-8.3 6.7-15 15-15h132v3c0 23.5 19.1 42.6 42.6 42.6s42.6-19.1 42.6-42.7v-2.9h116.4v3c0 23.5 19.1 42.6 42.6 42.6 23.4 0 42.5-19.1 42.6-42.7v-2.9h112c8.3 0 15 6.8 15 15L791.3 673c0 8.2 6.7 15 15 15s15-6.7 15-15l1.1-468.3c0-24.8-20.2-45-45-45h-112V146c0-23.5-19.1-42.6-42.6-42.6S580.2 122.5 580.2 146v13.7H463.8V146c0-23.5-19.1-42.6-42.6-42.6S378.6 122.5 378.6 146v13.7h-132c-24.8 0-45 20.2-45 45v670.8c0 24.8 20.2 45 45 45h530.8c24.8 0 45-20.2 45-44.9v-60.9c0-8.3-6.7-15-15-15zM610.2 146.1c0-7 5.7-12.6 12.6-12.6 6.9 0 12.5 5.6 12.6 12.5v46.8c0 7-5.6 12.6-12.6 12.6s-12.6-5.7-12.6-12.6V146.1z m-201.6 0c0-7 5.7-12.6 12.6-12.6 7 0 12.6 5.6 12.6 12.5v46.8c0 7-5.6 12.6-12.6 12.6s-12.6-5.7-12.6-12.6V146.1z" fill="#06275B" p-id="2832"></path><path d="M699.8 401l-255.6-1c-5.8 0-10.4-6.8-10.4-15 0-8.3 4.7-15 10.4-15l255.6 1c5.8 0 10.4 6.8 10.4 15 0 8.3-4.7 15-10.4 15zM708.5 511L439 510c-5.9 0-10.7-6.8-10.7-15 0-8.3 4.8-15 10.7-15l269.5 1c5.9 0 10.7 6.8 10.7 15 0 8.3-4.8 15-10.7 15zM529 731l-201.7-1c-8.3 0-15-6.8-14.9-15.1 0-8.3 6.8-15 15.1-14.9l201.7 1c8.3 0 15 6.8 14.9 15.1-0.1 8.2-6.8 14.9-15.1 14.9zM634 621l-306.7-1c-8.3 0-15-6.8-15-15 0-8.3 6.7-15 15-15l306.7 1c8.3 0 15 6.8 15 15 0 8.3-6.7 15-15 15z" fill="#06275B" p-id="2833"></path><path d="M357.9 413.3c-3.8 0-7.6-1.5-10.4-4.2l-20.4-19.5c-6-5.7-6.2-15.2-0.5-21.2s15.2-6.2 21.2-0.5l8.8 8.4 25.4-30.5c5.3-6.4 14.8-7.2 21.1-1.9 6.4 5.3 7.2 14.8 1.9 21.1l-35.7 42.8c-2.7 3.2-6.5 5.1-10.7 5.4-0.1 0.1-0.4 0.1-0.7 0.1z" fill="#06275B" p-id="2834"></path><path d="M357.9 523.3c-3.8 0-7.6-1.5-10.4-4.2l-20.4-19.5c-6-5.7-6.2-15.2-0.5-21.2s15.2-6.2 21.2-0.5l8.8 8.4 25.4-30.5c5.3-6.4 14.8-7.2 21.1-1.9 6.4 5.3 7.2 14.8 1.9 21.1l-35.7 42.8c-2.7 3.2-6.5 5.1-10.7 5.4-0.1 0.1-0.4 0.1-0.7 0.1z" fill="#06275B" p-id="2835"></path></svg>