<?xml version="1.0" standalone="no"?><!DOCTYPE svg PUBLIC "-//W3C//DTD SVG 1.1//EN" "http://www.w3.org/Graphics/SVG/1.1/DTD/svg11.dtd"><svg t="1740148382206" class="icon" viewBox="0 0 1024 1024" version="1.1" xmlns="http://www.w3.org/2000/svg" p-id="2676" xmlns:xlink="http://www.w3.org/1999/xlink" width="200" height="200"><path d="M844.7 311.6H178.1c-0.9 0-1.6-0.7-1.6-1.6V169.2c0-0.9 0.7-1.6 1.6-1.6h666.6c0.9 0 1.6 0.7 1.6 1.6V310c0 0.9-0.7 1.6-1.6 1.6z" fill="#ABA3CC" p-id="2677"></path><path d="M787.8 959.3H236.2c-49.6 0-89.9-40.4-89.9-89.9V226.1c0-49.6 40.4-89.9 89.9-89.9h551.7c49.6 0 89.9 40.4 89.9 89.9v643.3c0 49.6-40.4 89.9-90 89.9zM236.2 172.2c-29.8 0-54 24.2-54 54v643.3c0 29.8 24.2 54 54 54h551.7c29.8 0 54-24.2 54-54V226.1c0-29.8-24.2-54-54-54H236.2z" fill="#6229CE" p-id="2678"></path><path d="M621.2 226.1H402.8c-3.3 0-5.9-2.7-5.9-5.9V88.1c0-3.3 2.7-5.9 5.9-5.9h218.3c3.3 0 5.9 2.7 5.9 5.9v132.1c0.1 3.3-2.6 5.9-5.8 5.9z" fill="#dbdbdb" p-id="2679"></path><path d="M591.6 244.1H432.4c-29.5 0-53.4-24-53.4-53.4v-73c0-29.5 24-53.4 53.4-53.4h159.3c29.5 0 53.4 24 53.4 53.4v73c0 29.5-24 53.4-53.5 53.4zM432.4 100.2c-9.6 0-17.5 7.8-17.5 17.4v73c0 9.6 7.8 17.4 17.5 17.4h159.3c9.6 0 17.5-7.8 17.5-17.4v-73c0-9.6-7.8-17.4-17.5-17.4H432.4zM675.5 466L451.8 689.7 348.5 586.5l-11.9 11.9 103.2 103.3 12 11.9 11.9-11.9 223.7-223.8z" fill="#dbdbdb" p-id="2680"></path></svg>