<?xml version="1.0" standalone="no"?><!DOCTYPE svg PUBLIC "-//W3C//DTD SVG 1.1//EN" "http://www.w3.org/Graphics/SVG/1.1/DTD/svg11.dtd"><svg t="1740148493200" class="icon" viewBox="0 0 1024 1024" version="1.1" xmlns="http://www.w3.org/2000/svg" p-id="3847" xmlns:xlink="http://www.w3.org/1999/xlink" width="200" height="200"><path d="M710.438769 796.917449H307.479748c-30.650671 0-69.693788-39.043117-69.693788-69.693788l-0.973037-203.4864c-4.986816 0-11.068298 0-17.393039-0.243259-30.650671-1.094667-39.043117-5.473334-43.543414-10.095261-13.136002-13.379261-13.379261-34.177931-0.729778-47.435562l91.343865-103.141941V209.446253c-1.094667-18.001188 7.541038-34.056301 24.2043-45.1246 23.231263-15.446965 57.774082-17.879558 82.221641-5.716593 18.244447 9.122224 29.434375 25.055707 31.866968 45.367858L485.180663 120.413351c6.324742-6.446371 14.838817-10.095261 23.96104-10.095261 9.000594 0 17.514669 3.52726 23.961041 10.095261 0 0 125.035277 129.657204 309.669082 344.090272 12.771113 13.257632 12.406224 33.934672-0.729778 47.313933-4.500297 4.500297-12.892743 9.000594-43.786673 10.825038-6.568001 0.364889-12.892743 0.608148-18.122818 0.608148v189.377361c0 12.162965 0 32.596745-8.635705 50.354674-7.541038 15.568595-24.2043 33.934672-61.058083 33.934672zM260.895593 498.681554l1.094667 228.420477c0 17.514669 27.974819 45.489488 45.367859 45.489488h402.959021c41.840599 0 45.367858-29.556004 45.367858-59.841786V499.046443l12.284595 0.121629c24.812448 0.364889 51.084452-1.946074 57.044304-4.743556 3.40563-4.013778 3.40563-9.487112-0.12163-13.014372l-0.608148-0.608149c-1.946074-2.310963-194.242547-225.622996-201.661955-234.13707l-107.277349-109.101794c-1.824445-1.824445-4.135408-2.797482-6.568001-2.797482-2.432593 0-4.743556 0.973037-6.568001 2.797482L380.822425 263.936334v-54.490081c-0.851408-13.500891-7.176149-23.231263-18.852595-29.069486-16.784891-8.392446-41.718969-6.568001-57.895712 4.135408-6.568001 4.378667-14.109039 12.041335-13.379261 23.717781v163.713505l-98.033496 110.682979c-3.52726 3.52726-3.52726 9.122224-0.121629 13.014372 6.081482 2.797482 31.623708 4.378667 55.706378 3.405631l12.649483-0.364889z" fill="" p-id="3848"></path><path d="M657.043354 562.537118h-76.626677c-22.623114 0-40.989191-18.366077-40.989192-40.989191v-65.801639c0-22.623114 18.366077-40.989191 40.989192-40.989191h76.626677c22.623114 0 40.989191 18.366077 40.989191 40.989191v65.801639c-0.12163 22.623114-18.487706 40.989191-40.989191 40.989191z m-76.626677-123.332462c-9.122224 0-16.663262 7.419408-16.663262 16.663262v65.801639c0 9.122224 7.419408 16.663262 16.663262 16.663262h76.626677c9.122224 0 16.663262-7.419408 16.663262-16.663262v-65.801639c0-9.122224-7.419408-16.663262-16.663262-16.663262h-76.626677z" fill="" p-id="3849"></path><path d="M462.557548 626.514313h23.961041c10.21689 0 18.487706 8.270816 18.487706 18.487706s-8.270816 18.487706-18.487706 18.487707H462.557548c-10.21689 0-18.487706-8.270816-18.487706-18.487707s8.270816-18.487706 18.487706-18.487706z" fill="" p-id="3850"></path><path d="M514.979926 796.917449H332.048937V542.224967c0-22.623114 18.366077-40.989191 40.989191-40.989191h101.074237c22.623114 0 40.989191 18.366077 40.989191 40.989191v254.692482z m-158.60506-24.32593h134.279131V542.224967c0-9.122224-7.419408-16.663262-16.663262-16.663261h-101.074237c-9.122224 0-16.663262 7.419408-16.663261 16.663261v230.366552z" fill="" p-id="3851"></path></svg>