<?xml version="1.0" standalone="no"?><!DOCTYPE svg PUBLIC "-//W3C//DTD SVG 1.1//EN" "http://www.w3.org/Graphics/SVG/1.1/DTD/svg11.dtd"><svg t="1740148516060" class="icon" viewBox="0 0 1024 1024" version="1.1" xmlns="http://www.w3.org/2000/svg" p-id="3996" xmlns:xlink="http://www.w3.org/1999/xlink" width="200" height="200"><path d="M888.576 446.4l-388.992-315.52a25.6 25.6 0 0 0-16-7.36c-0.768-0.128-1.6 0-2.304 0-0.768 0-1.472-0.128-2.304 0a25.6 25.6 0 0 0-16 7.36l-388.992 315.52a26.048 26.048 0 0 0 32.832 40.384l40.192-32.64v374.848c0 38.336 31.168 69.504 69.504 69.504h512.32a25.984 25.984 0 0 0 0-51.968H216.32a17.664 17.664 0 0 1-17.408-17.408v-408.32a24.96 24.96 0 0 0-1.28-7.808L481.28 183.04l374.464 303.808a26.048 26.048 0 1 0 32.896-40.384z" fill="#00A3AF" p-id="3997"></path><path d="M859.072 527.68c-63.552 0-102.144 110.848-102.144 159.552 0 47.872 35.648 88.064 80.192 99.072v84.928c0 13.44 8.512 24.448 21.952 24.448 13.504 0 22.016-11.008 22.016-24.448v-84.928c44.608-11.008 80.32-51.2 80.32-99.072-0.128-48.704-38.72-159.552-102.336-159.552z m0 230.336a64.64 64.64 0 0 1-64.576-64.64c0-50.176 40.512-134.144 64.64-134.144 24.064 0 64.576 83.968 64.576 134.144a64.64 64.64 0 0 1-64.64 64.64z" fill="#F96702" p-id="3998"></path><path d="M537.472 609.792H444.48a7.808 7.808 0 0 1-7.808-7.808V387.328c0-4.352 3.52-7.808 7.808-7.808h92.992c4.352 0 7.808 3.456 7.808 7.808v214.656a7.808 7.808 0 0 1-7.808 7.808z" fill="#00A3AF" p-id="3999"></path></svg>