<?xml version="1.0" standalone="no"?><!DOCTYPE svg PUBLIC "-//W3C//DTD SVG 1.1//EN" "http://www.w3.org/Graphics/SVG/1.1/DTD/svg11.dtd"><svg t="1742636946554" class="icon" viewBox="0 0 1027 1024" version="1.1" xmlns="http://www.w3.org/2000/svg" p-id="1549" xmlns:xlink="http://www.w3.org/1999/xlink" width="200.5859375" height="200"><path d="M1025.631 317.162c0.002-0.1 0.002-0.199 0.002-0.3l0-46.471-1.254-3.683c-13.853-40.689-46.175-66.979-82.341-66.979L81.968 199.729c-18.908 0-38.212 5.804-52.964 15.923-18.704 12.83-29.004 31.316-29.004 52.054l0 481.568c0 42.391 42.384 70.867 81.968 70.867L942.038 820.141c39.987 0 69.107-30.795 81.893-57.167l2.354-4.854L1026.285 322.687C1026.284 320.784 1026.058 318.934 1025.631 317.162zM526.531 495.854c-8.833 5.669-20.222 5.674-29.056 0.01l-88.244-57.875c-0.022-0.017-0.047-0.03-0.071-0.047L117.595 246.72l788.806 0L526.531 495.854zM46.989 749.273 46.989 267.705c0-3.182 1.304-6.145 3.515-8.789L357.688 460.382 47.025 750.052C47.01 749.792 46.989 749.535 46.989 749.273zM398.143 486.912l73.641 48.299 0.147 0.095c12.17 7.853 26.114 11.776 40.064 11.776 13.946 0 27.896-3.926 40.065-11.775l79.249-51.975 307.465 289.818L91.159 773.15 398.143 486.912zM671.708 456.837l297.348-195.012c3.976 4.977 7.227 10.75 9.585 16.642l0 38.395c0 1.903 0.226 3.753 0.653 5.526-0.001 0.1-0.002 0.2-0.002 0.301l0 424.075L671.708 456.837z" fill="#272636" p-id="1550"></path></svg>