<?xml version="1.0" standalone="no"?><!DOCTYPE svg PUBLIC "-//W3C//DTD SVG 1.1//EN" "http://www.w3.org/Graphics/SVG/1.1/DTD/svg11.dtd"><svg t="1742636978894" class="icon" viewBox="0 0 1024 1024" version="1.1" xmlns="http://www.w3.org/2000/svg" p-id="1696" xmlns:xlink="http://www.w3.org/1999/xlink" width="200" height="200"><path d="M762.4 117.3H265.6c-85.1 0-154.3 69.2-154.3 154.3v334.8c0 85.1 69.2 154.3 154.3 154.3h123.7l76.1 121.5c4.6 7.3 10.8 13.5 18.1 18.1 26.8 16.8 62.2 8.7 79-18.1l76.1-121.5h123.7c85.1 0 154.3-69.2 154.3-154.3V271.6c0-85.1-69.1-154.3-154.2-154.3z m58.1 489.1c0 32-26.1 58.1-58.1 58.1H265.6c-32 0-58.1-26.1-58.1-58.1V271.6c0-32 26.1-58.1 58.1-58.1h496.8c32 0 58.1 26.1 58.1 58.1v334.8z" fill="#BDD2EF" p-id="1697"></path><path d="M324.4 450.3m-65.7 0a65.7 65.7 0 1 0 131.4 0 65.7 65.7 0 1 0-131.4 0Z" fill="#2867CE" p-id="1698"></path><path d="M514.2 450.3m-65.7 0a65.7 65.7 0 1 0 131.4 0 65.7 65.7 0 1 0-131.4 0Z" fill="#2867CE" p-id="1699"></path><path d="M704 450.3m-65.7 0a65.7 65.7 0 1 0 131.4 0 65.7 65.7 0 1 0-131.4 0Z" fill="#2867CE" p-id="1700"></path></svg>