<?xml version="1.0" standalone="no"?><!DOCTYPE svg PUBLIC "-//W3C//DTD SVG 1.1//EN" "http://www.w3.org/Graphics/SVG/1.1/DTD/svg11.dtd"><svg t="1740148614014" class="icon" viewBox="0 0 1024 1024" version="1.1" xmlns="http://www.w3.org/2000/svg" p-id="5877" xmlns:xlink="http://www.w3.org/1999/xlink" width="200" height="200"><path d="M512.8704 111.3088c-220.5184 0-399.9232 179.4048-399.9232 399.9232s179.4048 399.9232 399.9232 399.9232 399.9232-179.4048 399.9232-399.9232-179.4048-399.9232-399.9232-399.9232z m0 40.96c197.9392 0 358.9632 161.024 358.9632 358.9632 0 85.4016-30.0032 163.84-79.9744 225.536-30.3616-89.7024-100.9152-157.5936-188.7744-185.4976 42.9568-29.0304 71.2192-78.1824 71.2192-133.7856 0-88.9856-72.3968-161.4336-161.4336-161.4336-88.9856 0-161.4336 72.3968-161.4336 161.4336 0 55.6544 28.3136 104.8064 71.2704 133.8368a292.85888 292.85888 0 0 0-188.8256 185.4464c-49.9712-61.696-79.9744-140.1856-79.9744-225.536 0-197.9392 161.024-358.9632 358.9632-358.9632z m0 385.0752c-3.1232 0-6.1952 0.1024-9.2672 0.2048-62.1056-4.7616-111.1552-56.7808-111.1552-120.064 0-66.4064 54.016-120.4736 120.4736-120.4736 66.4064 0 120.4736 54.016 120.4736 120.4736 0 63.2832-49.1008 115.3024-111.1552 120.064-3.1744-0.1024-6.2464-0.2048-9.3696-0.2048z m-246.528 234.3936c26.9312-110.6432 122.9312-188.7232 236.1344-193.2288 3.4304 0.2048 6.912 0.3584 10.3936 0.3584 3.4816 0 6.9632-0.1536 10.3936-0.3584 113.3568 4.5056 209.2032 82.5344 236.1344 193.28-64.3584 60.928-151.1424 98.4064-246.528 98.4064s-182.1696-37.4784-246.528-98.4576z" fill="#888888" p-id="5878"></path></svg>