<?xml version="1.0" standalone="no"?><!DOCTYPE svg PUBLIC "-//W3C//DTD SVG 1.1//EN" "http://www.w3.org/Graphics/SVG/1.1/DTD/svg11.dtd"><svg t="1743322930443" class="icon" viewBox="0 0 1024 1024" version="1.1" xmlns="http://www.w3.org/2000/svg" p-id="5303" xmlns:xlink="http://www.w3.org/1999/xlink" width="200" height="200"><path d="M571.733333 145.066667l123.733334 247.466666c4.266667 6.4 10.666667 12.8 19.2 12.8l275.2 40.533334c21.333333 2.133333 27.733333 27.733333 12.8 42.666666l-200.533334 192c-6.4 6.4-8.533333 12.8-6.4 21.333334l46.933334 270.933333c4.266667 19.2-17.066667 36.266667-36.266667 25.6l-247.466667-128c-6.4-4.266667-14.933333-4.266667-23.466666 0l-247.466667 128c-19.2 8.533333-38.4-6.4-36.266667-25.6L298.666667 701.866667c2.133333-8.533333-2.133333-17.066667-6.4-21.333334l-200.533334-192c-14.933333-14.933333-6.4-38.4 12.8-42.666666L386.133333 405.333333c8.533333-2.133333 14.933333-6.4 19.2-12.8l123.733334-247.466666c8.533333-19.2 34.133333-19.2 42.666666 0z" fill="#ACCCF8" p-id="5304"></path><path d="M236.8 957.866667c-12.8 0-23.466667-4.266667-34.133333-10.666667-17.066667-12.8-25.6-34.133333-21.333334-55.466667l46.933334-266.666666-196.266667-189.866667c-14.933333-14.933333-21.333333-36.266667-14.933333-57.6 6.4-21.333333 23.466667-36.266667 46.933333-38.4L332.8 298.666667l121.6-243.2c10.666667-19.2 29.866667-32 51.2-32s40.533333 12.8 51.2 32L678.4 298.666667l273.066667 38.4c21.333333 2.133333 38.4 17.066667 46.933333 38.4 6.4 21.333333 2.133333 42.666667-14.933333 57.6l-196.266667 189.866666L832 891.733333c4.266667 21.333333-4.266667 42.666667-21.333333 55.466667-19.2 12.8-42.666667 12.8-61.866667 4.266667l-243.2-125.866667-243.2 125.866667c-8.533333 4.266667-17.066667 6.4-25.6 6.4zM85.333333 398.933333l187.733334 181.333334c12.8 12.8 19.2 32 17.066666 51.2l-44.8 256 234.666667-121.6c17.066667-8.533333 36.266667-8.533333 53.333333 0l234.666667 121.6-44.8-256c-4.266667-19.2 2.133333-36.266667 17.066667-51.2l187.733333-181.333334-260.266667-38.4c-19.2-2.133333-34.133333-14.933333-42.666666-29.866666l-117.333334-234.666667-117.333333 234.666667c-8.533333 17.066667-23.466667 27.733333-42.666667 29.866666L85.333333 398.933333z m855.466667 2.133334z" fill="#2C4971" p-id="5305"></path><path d="M550.4 640c-8.533333 0-17.066667-2.133333-23.466667-8.533333l-160-157.866667c-12.8-12.8-12.8-32 0-44.8 12.8-12.8 32-12.8 44.8 0l160 157.866667c12.8 12.8 12.8 32 0 44.8-4.266667 6.4-12.8 8.533333-21.333333 8.533333z" fill="#567CB0" p-id="5306"></path></svg>