<?xml version="1.0" standalone="no"?><!DOCTYPE svg PUBLIC "-//W3C//DTD SVG 1.1//EN" "http://www.w3.org/Graphics/SVG/1.1/DTD/svg11.dtd"><svg t="1743322889088" class="icon" viewBox="0 0 1024 1024" version="1.1" xmlns="http://www.w3.org/2000/svg" p-id="5159" xmlns:xlink="http://www.w3.org/1999/xlink" width="200" height="200"><path d="M511.6 628.8c133.2 0 241.2-108 241.2-241.2s-108-241.2-241.2-241.2-241.2 108-241.2 241.2c-0.1 133.2 107.9 241.2 241.2 241.2z m0-437.7c108.4 0 196.5 88.2 196.5 196.5 0 108.4-88.2 196.5-196.5 196.5S315 496 315 387.6s88.2-196.5 196.6-196.5z" fill="#767676" p-id="5160"></path><path d="M883.4 818.6L775.9 574.5c37.4-52.8 59.6-117.2 59.6-186.9 0-178.9-145-324-324-324-178.9 0-324 145-324 324 0 69.7 22.2 134 59.6 186.9L139.7 818.6c-8.5 19.3-2.9 30.8 3.2 37 14.9 15.2 34.9 6.9 65.1-5.7 20.4-8.5 58.4-24.4 72.4-18.2l20.4 9c14 6.2 27.9 44.9 35.4 65.7 11.1 30.8 18.4 51.1 39.8 51.9h1c8.7 0 20.3-4.1 28.5-22.6l98.9-224.5c2.4 0.1 4.8 0.4 7.2 0.4s4.8-0.3 7.2-0.4l98.9 224.5c8.2 18.6 19.8 22.7 28.5 22.7h1c21.4-0.7 28.7-21.1 39.8-51.9 7.5-20.8 21.4-59.5 35.4-65.7l20.5-9c14-6.1 52 9.7 72.4 18.2 30.2 12.6 50.1 21 65.1 5.7 6-6.4 11.5-17.9 3-37.1zM511.6 108.3c154 0 279.3 125.3 279.3 279.3S665.6 666.9 511.6 666.9 232.3 541.6 232.3 387.6s125.3-279.3 279.3-279.3zM377.3 888.6c-12.3-34.1-27.8-75.2-58.5-88.7l-20.4-9c-30.7-13.5-71.6 2.8-105.1 16.8L279.1 613c47 48.4 108.9 82 178.4 93.7l-80.2 181.9z m347.5-97.8l-20.5 9c-30.7 13.5-46.2 54.8-58.5 88.9l-80.2-182C635.1 695 697 661.4 744 612.9l85.7 194.6c-33.5-13.8-74.3-30.1-104.9-16.7z" fill="#767676" p-id="5161"></path></svg>