<?xml version="1.0" standalone="no"?><!DOCTYPE svg PUBLIC "-//W3C//DTD SVG 1.1//EN" "http://www.w3.org/Graphics/SVG/1.1/DTD/svg11.dtd"><svg t="1743489546078" class="icon" viewBox="0 0 1024 1024" version="1.1" xmlns="http://www.w3.org/2000/svg" p-id="2666" xmlns:xlink="http://www.w3.org/1999/xlink" width="200" height="200"><path d="M923.70165808 143.82713713c-14.15561017-6.09472366-30.58135255-9.94625189-47.82280443-10.65422408-56.2992384-9.61919607-132.67566802 5.18667211-193.18426791 37.43406829 17.84553402-43.45568587-50.12756132-24.39043633-76.02629065-17.70701922-83.25223168 21.46235493-158.0010927 60.29697895-224.64674175 113.31799699 5.8946443-36.88385001-40.95084951-15.36378087-74.44104436 12.26255358-66.09158358 54.57548048-118.65857263 119.72053418-150.79439083 198.55562746-28.5844091 70.17781904-28.40356563 141.35603178-2.75493555 207.46300724 86.72283707-95.28392519 169.19399034-186.36233287 275.37453805-277.9601813 118.85865203-102.64838093 260.88033375-181.57197236 343.33224796-188.65170427-310.70392883 155.67324624-516.17383663 413.20225029-716.1300198 676.25267656h346.28726603v-13.25525292h-309.73046865c5.87925236-2.58564009 11.02359897-5.85231885 16.09484263-11.39298023 23.04759804-25.11380051 41.98202715-53.95215603 66.39169945-77.86162983 30.74680406-30.05806778 32.60138554-27.51475318 59.05418037-28.20733663 51.48194439-1.3159048 103.51411031-5.08663242 154.07645833-14.31336728 107.55417315-19.63085973 199.30592509-68.45405793 269.49528568-152.61818843 17.50693991-20.99678435 34.53676763-56.75326419-10.75426058-55.33731974 15.97171655-7.50297376 27.31467376-12.06632138 37.88424694-17.91864021 82.38650238-45.64116713 158.82449659-98.02731922 207.26292471-180.76396042 13.07441269-22.32808108 27.9803205-64.99114693-16.13716486-56.65707492 24.33656928-23.6247499 48.34608601-43.11324448 67.48059449-66.40324423 28.39587123-34.53292039 20.92367819-58.48472288-20.31189527-75.58380641z m0 0" p-id="2667"></path></svg>